<svg xmlns="http://www.w3.org/2000/svg" viewBox="0 0 24 24" width="24" height="24" fill="none" stroke="currentColor" stroke-width="1.5" stroke-linecap="round" stroke-linejoin="round">
  <path d="M12 3a2 2 0 0 0-2 2c0 1.1.9 2 2 2a2 2 0 0 0 2-2c0-1.1-.9-2-2-2z"/>
  <path d="M19 9a2 2 0 0 0-2 2c0 1.1.9 2 2 2a2 2 0 0 0 2-2c0-1.1-.9-2-2-2z"/>
  <path d="M5 9a2 2 0 0 0-2 2c0 1.1.9 2 2 2a2 2 0 0 0 2-2c0-1.1-.9-2-2-2z"/>
  <path d="M12 15a2 2 0 0 0-2 2c0 1.1.9 2 2 2a2 2 0 0 0 2-2c0-1.1-.9-2-2-2z"/>
  <path d="M12 7v2"/>
  <path d="M12 13v2"/>
  <path d="M7 11h3"/>
  <path d="M14 11h3"/>
</svg> 