<svg xmlns="http://www.w3.org/2000/svg" viewBox="0 0 24 24" width="24" height="24" fill="#ee4d2d">
  <path d="M12 1C5.9 1 1 5.9 1 12s4.9 11 11 11 11-4.9 11-11S18.1 1 12 1zm0 2c4.9 0 9 4.1 9 9s-4.1 9-9 9-9-4.1-9-9 4.1-9 9-9z"/>
  <path d="M12 4.5c-1.1 0-2 .9-2 2s.9 2 2 2 2-.9 2-2-.9-2-2-2zm-4.5 3c-.8 0-1.5.7-1.5 1.5s.7 1.5 1.5 1.5 1.5-.7 1.5-1.5-.7-1.5-1.5-1.5zm9 0c-.8 0-1.5.7-1.5 1.5s.7 1.5 1.5 1.5 1.5-.7 1.5-1.5-.7-1.5-1.5-1.5zM12 10c-3.3 0-6 1.3-6 3v3c0 1.7 2.7 3 6 3s6-1.3 6-3v-3c0-1.7-2.7-3-6-3zm0 2c2.2 0 4 .7 4 1v1c0 .3-1.8 1-4 1s-4-.7-4-1v-1c0-.3 1.8-1 4-1z"/>
</svg> 